<?xml version="1.0" encoding="UTF-8"?>
<svg width="1874px" height="1042px" viewBox="0 0 1874 1042" version="1.1" xmlns="http://www.w3.org/2000/svg" xmlns:xlink="http://www.w3.org/1999/xlink">
    <title>UXGraz_navbar_logo</title>
    <g id="Artifacts" stroke="none" stroke-width="1" fill="none" fill-rule="evenodd">
        <g id="UXGraz_navbar_logo" transform="translate(1.000000, 1.000000)">
            <rect id="Rectangle" stroke-opacity="0" stroke="#FFFFFF" x="0" y="0" width="1872" height="1040"></rect>
            <g id="g1878" transform="translate(519.000000, 0.000000)" fill-rule="nonzero">
                <g id="g1890">
                    <g id="g1866" transform="translate(22.514419, 692.657657)" fill="#53676C">
                        <path d="M0.819619288,205.346624 L0.819619288,141.838212 C0.819619288,47.4242143 38.9018035,0.217215471 115.066172,0.217215471 C131.576247,0.217215471 146.21725,2.61336816 158.989181,7.40567353 C171.916878,12.0385012 182.819737,18.8378336 191.697758,27.8036708 C200.575779,36.6116251 207.506886,47.4282012 212.491077,60.2533992 C217.475108,73.0785971 220.434502,87.6038275 221.369259,103.82909 L178.614496,103.82909 C176.900909,82.8139143 170.982201,66.4343567 160.858373,54.6904177 C150.88999,42.7917853 135.703846,36.8424691 115.299941,36.8424691 C102.216478,36.8424691 91.1578532,39.0073791 82.124066,43.3371991 C73.0902787,47.6670191 65.6919144,54.2343114 59.9289728,63.0390762 C54.3220384,71.6923371 50.1945197,82.5862599 47.5464167,95.7208446 C45.0539994,108.700736 43.8077907,123.921289 43.8077907,141.382504 L43.8077907,205.354997 C43.8077907,223.279495 45.5989394,238.886383 49.1812367,252.175661 C52.7635341,265.464939 57.8255687,276.436208 64.3673404,285.089469 C71.0649586,293.74273 79.0863469,300.232676 88.4315055,304.559306 C97.7768248,308.729648 108.212426,310.81482 119.738309,310.81482 C129.550926,310.81482 137.805964,309.965601 144.503421,308.267163 C151.201039,306.568725 156.730372,304.483554 161.091419,302.01165 C165.608474,299.539745 169.190771,297.06784 171.838311,294.595936 C174.485852,292.124031 176.744379,290.03886 178.613893,288.340422 L178.613893,210.461074 L116.467463,210.461074 L116.467463,174.302293 L221.369259,174.302293 L221.369259,300.39335 C218.565189,304.101206 214.749404,308.659478 209.921299,314.068165 C205.248318,319.322956 198.940196,324.422256 190.996931,329.366065 C183.053506,334.15837 173.240929,338.330706 161.5592,341.883072 C150.033317,345.279948 136.015338,346.978385 119.505263,346.978385 C101.904986,346.978385 85.7843267,344.043995 71.1432836,338.175215 C56.658087,332.306435 44.197688,323.498481 33.7620868,311.751353 C23.3264053,300.007413 15.2270937,285.250542 9.46415216,267.480737 C3.701291,249.710933 0.819619288,229.004745 0.819619288,205.362173 L0.819619288,205.346624 Z" id="path1858"></path>
                        <path d="M285.851818,342.331603 L285.851818,91.5405349 L326.036683,91.5405349 L326.735942,117.037434 C331.8759,107.765399 338.261865,100.425437 345.893838,95.0175478 C353.681337,89.6112533 362.948773,86.908106 373.696147,86.908106 C374.941954,86.908106 376.343688,87.0675837 377.901348,87.3865391 C379.614935,87.5460168 381.250559,87.7852334 382.808219,88.1041888 C384.36588,88.4231443 385.767613,88.8218386 387.01342,89.3002717 C388.415154,89.6192271 389.427472,89.9381826 390.050376,90.257138 L390.279443,130.124972 C387.009,129.487061 383.971642,129.088367 381.167371,128.928889 C378.363904,128.609934 375.171022,128.450456 371.588724,128.450456 C360.374373,128.450456 351.106937,131.540337 343.786416,137.720099 C336.621821,143.89986 331.092488,152.321081 327.198418,162.983761 L327.198418,342.385427 L285.851818,342.331603 Z" id="path1860"></path>
                        <path d="M418.088021,273.955134 C418.088021,261.902605 420.190622,250.777041 424.395823,240.578441 C428.601023,230.379841 434.831223,221.571887 443.086421,214.154578 C451.341458,206.738865 461.699177,200.944242 474.159576,196.77071 C486.620055,192.44089 501.105292,190.27598 517.615286,190.27598 L546.352191,190.27598 L546.352191,163.621273 C546.352191,148.631963 543.003382,137.969681 536.305764,131.634429 C529.608146,125.29519 519.406154,122.12557 505.699787,122.12557 C499.002169,122.12557 493.005619,123.206032 487.710136,125.366955 C482.570178,127.376374 478.20901,130.15926 474.626633,133.715613 C471.044335,137.271966 468.318831,141.444302 466.450121,146.23262 C464.581411,150.865448 463.647056,155.810055 463.647056,161.06644 L422.294066,161.06644 C422.294066,152.103792 424.241142,143.21889 428.135293,134.411733 C432.184567,125.449086 437.869625,117.490749 445.190468,110.536723 C452.666917,103.431991 461.700704,97.7147147 472.29183,93.3848947 C482.883197,89.0550747 494.720612,86.8901647 507.804075,86.8901647 C519.485724,86.8901647 530.154975,88.2816078 539.811826,91.0644939 C549.624363,93.8473801 558.035126,98.3287039 565.044116,104.508465 C572.208711,110.688227 577.738043,118.646165 581.632114,128.38228 C585.526265,138.117597 587.47334,150.01583 587.47334,164.076981 L587.47334,287.617988 C587.47334,291.788331 587.630071,296.192308 587.943532,300.82992 C588.256993,305.462747 588.724371,310.021418 589.345667,314.505931 C590.125301,318.987255 590.982095,323.313886 591.916048,327.485823 C593.005928,331.504661 594.174173,335.212518 595.420784,338.609393 L595.420784,342.31725 L552.432371,342.31725 C551.030638,339.223383 549.862393,335.284283 548.927636,330.499952 C548.148002,325.556142 547.525098,320.379496 547.058925,314.970012 C544.099531,319.299832 540.672759,323.394821 536.778608,327.254979 C533.040384,331.122313 528.757139,334.523176 523.928874,337.457566 C519.255893,340.391956 514.115976,342.708369 508.509122,344.406807 C503.05731,346.105245 497.216486,346.954464 490.986648,346.954464 C479.927983,346.954464 469.881756,345.40753 460.847969,342.313662 C451.969948,339.219794 444.337934,334.584176 437.951929,328.406807 C431.566164,322.227045 426.659896,314.655442 423.233123,305.691997 C419.806753,296.574656 418.093567,285.989721 418.093567,273.937193 L418.088021,273.955134 Z M459.441132,269.087076 C459.441132,276.662268 460.219962,283.074867 461.777622,288.324873 C463.335283,293.42816 465.671773,297.600097 468.787094,300.840685 C471.902415,303.934552 475.796164,306.175214 480.468341,307.56267 C485.296445,308.950126 490.903621,309.643854 497.289868,309.643854 C503.052729,309.643854 508.504179,308.794636 513.644217,307.096198 C518.784174,305.39776 523.456834,303.23285 527.662196,300.601468 C531.867396,297.818582 535.527657,294.728701 538.642978,291.331826 C541.914226,287.775473 544.484204,284.143368 546.352915,280.435511 L546.352915,220.634955 L524.624999,220.634955 C514.656696,220.634955 505.622909,221.715417 497.523637,223.87634 C489.580212,226.037263 482.726989,229.202896 476.963967,233.373238 C471.357033,237.392076 466.995865,242.414428 463.880464,248.440294 C460.92107,254.468552 459.441373,261.344832 459.441373,269.069135 L459.441132,269.087076 Z" id="path1862"></path>
                        <polygon id="path1864" points="642.375685 342.331603 642.375685 310.808839 758.25766 127.003196 643.31016 127.003196 643.31016 91.5405349 806.853288 91.5405349 806.853288 121.904295 689.569539 307.331826 811.525908 307.331826 811.525908 342.331603"></polygon>
                    </g>
                    <g id="g1876" transform="translate(0.459197, 0.039708)">
                        <path d="M362.285657,0.484327359 L517.422697,0.484327359 C572.945153,133.536375 621.765839,233.076809 654.286654,292.593053 C671.253986,323.666174 684.191676,345.213427 692.055639,357.864935 C692.4703,358.483424 692.4703,358.483424 692.88782,359.101913 C691.849739,361.394295 691.849739,360.753109 690.454192,363.536877 C686.212359,371.767889 680.182339,383.154898 672.987838,396.978414 C658.598836,424.633389 639.01371,461.982189 617.7545,503.749213 C577.338552,583.149883 531.773951,676.714237 499.980937,751.13465 L348.091975,751.13465 L534.500128,360.314492 L362.285657,0.484327359 Z" id="path1868" fill="#008066"></path>
                        <g id="g1874" transform="translate(0.993556, 108.131124)" fill="#B3B3B3">
                            <path d="M0.97637447,0.851685265 L126.294461,0.851685265 L126.294461,376.629385 C126.294461,394.217663 130.993785,408.208932 140.392434,418.603193 C149.791082,428.725151 162.416878,433.786131 178.269819,433.786131 C194.65646,433.786131 207.551184,428.326324 216.953991,417.406712 C226.629886,406.473346 231.467834,391.415558 231.467834,372.233347 L231.467834,0.851685265 L355.979133,0.851685265 L355.979133,351.045311 C355.979133,398.75054 349.66485,436.994626 337.036282,465.77757 C324.407714,494.560513 305.737951,515.747862 281.026991,529.339617 C256.580801,542.665945 222.329796,549.329109 178.273978,549.329109 C113.265273,549.329109 67.4634956,532.805975 40.8686472,499.759707 C14.2737987,466.712063 0.97637447,410.878324 0.97637447,332.258488 L0.97637447,0.851685265 Z" id="path1870"></path>
                            <path d="M680.238747,0.915635137 L639.08431,104.105974 C638.044637,106.560824 638.460506,106.168873 637.420833,108.376175 C666.953798,166.523112 690.446261,209.148796 703.182262,230.008832 L815.579286,0.919760935 L680.238747,0.915635137 Z M701.08628,277.123384 C690.398436,298.057684 670.445022,335.757165 635.969448,403.449136 C643.912554,424.078127 655.702452,453.377483 690.662513,534.571129 L826.052957,534.571129 L701.08628,277.123384 Z" id="path1872"></path>
                        </g>
                    </g>
                </g>
            </g>
        </g>
    </g>
</svg>