<?xml version="1.0" encoding="UTF-8" standalone="no"?>
<!-- Created with Inkscape (http://www.inkscape.org/) -->

<svg
   xmlns:dc="http://purl.org/dc/elements/1.1/"
   xmlns:cc="http://creativecommons.org/ns#"
   xmlns:rdf="http://www.w3.org/1999/02/22-rdf-syntax-ns#"
   xmlns:svg="http://www.w3.org/2000/svg"
   xmlns="http://www.w3.org/2000/svg"
   xmlns:sodipodi="http://sodipodi.sourceforge.net/DTD/sodipodi-0.dtd"
   xmlns:inkscape="http://www.inkscape.org/namespaces/inkscape"
   width="300"
   height="100"
   viewBox="0 0 79.374998 26.458334"
   version="1.1"
   id="svg8"
   inkscape:version="0.92.4 (5da689c313, 2019-01-14)"
   sodipodi:docname="UXGrazLogo_default.svg">
  <defs
     id="defs2">
    <linearGradient
       id="SVGID_1_"
       gradientUnits="userSpaceOnUse"
       x1="100.8335"
       y1="160.87"
       x2="98.263496"
       y2="-64.089996"
       gradientTransform="matrix(1,0,0,-1,0,202)">
      <stop
         offset="0"
         style="stop-color:#FF4166"
         id="stop4" />
      <stop
         offset="0.49"
         style="stop-color:#CC0033"
         id="stop6" />
      <stop
         offset="1"
         style="stop-color:#660033"
         id="stop8" />
    </linearGradient>
    <filter
       inkscape:label="Liquid Drawing"
       inkscape:menu-tooltip="Gives a fluid and wavy expressionist drawing effect to images"
       inkscape:menu="Image Paint and Draw"
       x="-0.25"
       width="1.5"
       y="-0.25"
       height="1.5"
       style="color-interpolation-filters:sRGB"
       id="filter1533">
      <feGaussianBlur
         result="result11"
         stdDeviation="2"
         id="feGaussianBlur1511" />
      <feGaussianBlur
         in="SourceGraphic"
         stdDeviation="0.5"
         result="result8"
         id="feGaussianBlur1513" />
      <feTurbulence
         result="result9"
         baseFrequency="0.08"
         numOctaves="1"
         type="fractalNoise"
         id="feTurbulence1515" />
      <feDisplacementMap
         result="result10"
         in2="result11"
         xChannelSelector="G"
         scale="100"
         yChannelSelector="R"
         id="feDisplacementMap1517" />
      <feConvolveMatrix
         bias="0"
         result="result0"
         preserveAlpha="true"
         targetY="1"
         targetX="1"
         divisor="1"
         in="result10"
         kernelMatrix="1 1 1 1 -8 1 1 1 1 "
         order="3 3"
         id="feConvolveMatrix1519" />
      <feColorMatrix
         in="result0"
         values="0 -6 0 0 1 0 -6 0 0 1 0 -6 0 0 1 0 0 0 1 0 "
         result="result3"
         id="feColorMatrix1521" />
      <feComposite
         operator="in"
         in2="SourceGraphic"
         in="result3"
         result="fbSourceGraphic"
         id="feComposite1523" />
      <feBlend
         in2="result8"
         mode="multiply"
         result="result12"
         id="feBlend1525" />
      <feGaussianBlur
         stdDeviation="0.01"
         in="result12"
         result="result7"
         id="feGaussianBlur1527" />
      <feBlend
         mode="screen"
         in2="result12"
         id="feBlend1529" />
      <feComposite
         operator="in"
         in2="SourceGraphic"
         id="feComposite1531" />
    </filter>
  </defs>
  <sodipodi:namedview
     id="base"
     pagecolor="#ffffff"
     bordercolor="#666666"
     borderopacity="1.0"
     inkscape:pageopacity="0.0"
     inkscape:pageshadow="2"
     inkscape:zoom="0.24748737"
     inkscape:cx="1194.83"
     inkscape:cy="302.28906"
     inkscape:document-units="px"
     inkscape:current-layer="layer1"
     showgrid="false"
     inkscape:window-width="1920"
     inkscape:window-height="1017"
     inkscape:window-x="-8"
     inkscape:window-y="-8"
     inkscape:window-maximized="1"
     units="px" />
  <metadata
     id="metadata5">
    <rdf:RDF>
      <cc:Work
         rdf:about="">
        <dc:format>image/svg+xml</dc:format>
        <dc:type
           rdf:resource="http://purl.org/dc/dcmitype/StillImage" />
        <dc:title></dc:title>
      </cc:Work>
    </rdf:RDF>
  </metadata>
  <g
     inkscape:label="Ebene 1"
     inkscape:groupmode="layer"
     id="layer1"
     transform="translate(0,-270.54165)">
    <g
       id="g1668"
       transform="matrix(1.0450117,0,0,1.0450117,-79.265453,13.342308)"
       style="stroke-width:0.95692712">
      <g
         transform="matrix(5.8705754,0,0,5.8705754,-102.46581,-644.23282)"
         id="g1608"
         style="font-style:normal;font-variant:normal;font-weight:normal;font-stretch:normal;font-size:3.96875px;line-height:125%;font-family:'Roboto Condensed';-inkscape-font-specification:'Roboto Condensed, Normal';font-variant-ligatures:normal;font-variant-caps:normal;font-variant-numeric:normal;font-feature-settings:normal;text-align:center;letter-spacing:0px;word-spacing:0px;writing-mode:lr-tb;text-anchor:middle;fill:#53676c;fill-opacity:1;stroke:none;stroke-width:0.04312813px;stroke-linecap:butt;stroke-linejoin:miter;stroke-opacity:1"
         aria-label="Graz">
        <path
           inkscape:connector-curvature="0"
           id="path1600"
           style="font-style:normal;font-variant:normal;font-weight:normal;font-stretch:normal;font-size:3.96875px;font-family:'Roboto Condensed';-inkscape-font-specification:'Roboto Condensed, Normal';font-variant-ligatures:normal;font-variant-caps:normal;font-variant-numeric:normal;font-feature-settings:normal;text-align:center;writing-mode:lr-tb;text-anchor:middle;fill:#53676c;fill-opacity:1;stroke-width:0.04312813px"
           d="m 36.07122,154.12483 v -0.53097 q 0,-1.18404 0.947617,-1.18404 0.205414,0 0.364319,0.0601 0.160843,0.0581 0.271301,0.17054 0.110458,0.11046 0.17247,0.2713 0.06201,0.16084 0.07364,0.36432 h -0.354629 q -0.02132,-0.26355 -0.147278,-0.41083 -0.124024,-0.14922 -0.377884,-0.14922 -0.162781,0 -0.275177,0.0543 -0.112396,0.0543 -0.184097,0.16472 -0.06976,0.10852 -0.102707,0.27324 -0.03101,0.16278 -0.03101,0.38176 v 0.53485 q 0,0.22479 0.04457,0.39145 0.04457,0.16666 0.125961,0.27518 0.08333,0.10852 0.1996,0.16278 0.116272,0.0523 0.259674,0.0523 0.122086,0 0.205414,-0.0213 0.08333,-0.0213 0.137589,-0.0523 0.0562,-0.031 0.08914,-0.062 0.03294,-0.031 0.0562,-0.0523 v -0.65112 H 37.03046 v -0.30231 h 0.870102 v 1.0542 q -0.03488,0.0465 -0.09495,0.11433 -0.05814,0.0659 -0.156968,0.1279 -0.09883,0.0601 -0.244171,0.10465 -0.143402,0.0426 -0.348816,0.0426 -0.218978,0 -0.401138,-0.0736 -0.180221,-0.0736 -0.310058,-0.22092 -0.129838,-0.14728 -0.201539,-0.37013 -0.0717,-0.22285 -0.0717,-0.51935 z" />
        <path
           inkscape:connector-curvature="0"
           id="path1602"
           style="font-style:normal;font-variant:normal;font-weight:normal;font-stretch:normal;font-size:3.96875px;font-family:'Roboto Condensed';-inkscape-font-specification:'Roboto Condensed, Normal';font-variant-ligatures:normal;font-variant-caps:normal;font-variant-numeric:normal;font-feature-settings:normal;text-align:center;writing-mode:lr-tb;text-anchor:middle;fill:#53676c;fill-opacity:1;stroke-width:0.04312813px"
           d="m 38.435417,155.27011 v -2.09677 h 0.333313 l 0.0058,0.21317 q 0.06395,-0.11628 0.158905,-0.1841 0.09689,-0.0678 0.230606,-0.0678 0.0155,0 0.03488,0.004 0.02132,0.002 0.0407,0.006 0.01938,0.004 0.03488,0.01 0.01744,0.004 0.02519,0.008 l 0.0019,0.33332 q -0.04069,-0.008 -0.07558,-0.01 -0.03488,-0.004 -0.07945,-0.004 -0.139526,0 -0.230606,0.0775 -0.08914,0.0775 -0.137589,0.21122 v 1.49991 z" />
        <path
           inkscape:connector-curvature="0"
           id="path1604"
           style="font-style:normal;font-variant:normal;font-weight:normal;font-stretch:normal;font-size:3.96875px;font-family:'Roboto Condensed';-inkscape-font-specification:'Roboto Condensed, Normal';font-variant-ligatures:normal;font-variant-caps:normal;font-variant-numeric:normal;font-feature-settings:normal;text-align:center;writing-mode:lr-tb;text-anchor:middle;fill:#53676c;fill-opacity:1;stroke-width:0.04312813px"
           d="m 39.532249,154.69844 q 0,-0.15115 0.05232,-0.27905 0.05232,-0.1279 0.155029,-0.22092 0.102707,-0.093 0.257736,-0.14534 0.15503,-0.0543 0.360443,-0.0543 h 0.238358 v -0.22285 q 0,-0.18798 -0.08333,-0.26743 -0.08333,-0.0795 -0.253861,-0.0795 -0.08333,0 -0.149215,0.0271 -0.06395,0.0252 -0.108521,0.0698 -0.04457,0.0446 -0.06782,0.10465 -0.02325,0.0581 -0.02325,0.12402 h -0.343002 q 0,-0.1124 0.04845,-0.22285 0.05038,-0.1124 0.141464,-0.19961 0.09302,-0.0891 0.224792,-0.1434 0.131775,-0.0543 0.294556,-0.0543 0.14534,0 0.265488,0.0349 0.122085,0.0349 0.209289,0.1124 0.08914,0.0775 0.137589,0.1996 0.04845,0.12209 0.04845,0.29843 v 1.03288 q 0,0.0523 0.0039,0.11046 0.0039,0.0581 0.01163,0.11434 0.0097,0.0562 0.02132,0.10852 0.01356,0.0504 0.02907,0.093 v 0.031 h -0.356567 q -0.01744,-0.0388 -0.02907,-0.0988 -0.0097,-0.062 -0.0155,-0.12984 -0.03682,0.0543 -0.08527,0.10271 -0.04651,0.0485 -0.106582,0.0853 -0.05814,0.0368 -0.127899,0.0581 -0.06783,0.0213 -0.14534,0.0213 -0.137589,0 -0.249985,-0.0388 -0.110458,-0.0388 -0.189911,-0.11627 -0.07945,-0.0775 -0.122085,-0.18991 -0.04263,-0.11434 -0.04263,-0.26549 z m 0.343003,-0.0407 q 0,0.095 0.01938,0.16084 0.01938,0.064 0.05814,0.10464 0.03876,0.0388 0.09689,0.0562 0.06007,0.0174 0.139526,0.0174 0.0717,0 0.135651,-0.0213 0.06395,-0.0213 0.116272,-0.0543 0.05232,-0.0349 0.09108,-0.0775 0.0407,-0.0446 0.06395,-0.0911 v -0.49997 h -0.180222 q -0.124023,0 -0.224792,0.0271 -0.09883,0.0271 -0.170532,0.0794 -0.06976,0.0504 -0.108521,0.12597 -0.03682,0.0756 -0.03682,0.17247 z" />
        <path
           inkscape:connector-curvature="0"
           id="path1606"
           style="font-style:normal;font-variant:normal;font-weight:normal;font-stretch:normal;font-size:3.96875px;font-family:'Roboto Condensed';-inkscape-font-specification:'Roboto Condensed, Normal';font-variant-ligatures:normal;font-variant-caps:normal;font-variant-numeric:normal;font-feature-settings:normal;text-align:center;writing-mode:lr-tb;text-anchor:middle;fill:#53676c;fill-opacity:1;stroke-width:0.04312813px"
           d="m 41.392601,155.27011 v -0.26355 l 0.961182,-1.53673 h -0.953431 v -0.29649 h 1.356507 v 0.25386 l -0.972809,1.55029 h 1.011566 v 0.29262 z" />
      </g>
      <path
         inkscape:connector-curvature="0"
         id="path1610"
         d="m 89.981883,247.13376 h 4.775926 c 1.709269,4.12869 3.212224,7.2175 4.213383,9.06433 0.522344,0.96422 0.920631,1.63284 1.162728,2.02543 0.0128,0.0192 0.0128,0.0192 0.0256,0.0384 -0.032,0.0711 -0.032,0.0512 -0.0749,0.13762 -0.130586,0.25541 -0.316223,0.60876 -0.537707,1.03771 -0.442968,0.85816 -1.045904,2.01711 -1.700371,3.31317 -1.244215,2.46386 -2.646927,5.36722 -3.625681,7.67654 h -4.675939 l 5.738614,-12.12741 z"
         style="color:#000000;font-style:normal;font-variant:normal;font-weight:normal;font-stretch:normal;font-size:3.96875px;line-height:125%;font-family:'Tw Cen MT Condensed Extra Bold';-inkscape-font-specification:'Tw Cen MT Condensed Extra Bold, Normal';font-variant-ligatures:normal;font-variant-position:normal;font-variant-caps:normal;font-variant-numeric:normal;font-variant-alternates:normal;font-feature-settings:normal;text-indent:0;text-align:center;text-decoration:none;text-decoration-line:none;text-decoration-style:solid;text-decoration-color:#000000;letter-spacing:0px;word-spacing:0px;text-transform:none;writing-mode:lr-tb;direction:ltr;text-orientation:mixed;dominant-baseline:auto;baseline-shift:baseline;text-anchor:middle;white-space:normal;shape-padding:0;clip-rule:nonzero;display:inline;overflow:visible;visibility:visible;opacity:1;isolation:auto;mix-blend-mode:normal;color-interpolation:sRGB;color-interpolation-filters:linearRGB;solid-color:#000000;solid-opacity:1;vector-effect:none;fill:#008066;fill-opacity:1;fill-rule:nonzero;stroke:none;stroke-width:0.18989016;stroke-linecap:butt;stroke-linejoin:miter;stroke-miterlimit:4;stroke-dasharray:none;stroke-dashoffset:0;stroke-opacity:1;color-rendering:auto;image-rendering:auto;shape-rendering:auto;text-rendering:auto;enable-background:accumulate" />
      <g
         id="g1616"
         style="fill:#b3b3b3;fill-opacity:1;stroke-width:0.14948918"
         transform="matrix(6.4013132,0,0,6.4013132,-605.92723,-1010.744)">
        <path
           inkscape:connector-curvature="0"
           id="path1612"
           style="font-style:normal;font-variant:normal;font-weight:normal;font-stretch:normal;font-size:3.96875px;line-height:125%;font-family:'Tw Cen MT Condensed Extra Bold';-inkscape-font-specification:'Tw Cen MT Condensed Extra Bold, Normal';font-variant-ligatures:normal;font-variant-caps:normal;font-variant-numeric:normal;font-feature-settings:normal;text-align:center;letter-spacing:0px;word-spacing:0px;writing-mode:lr-tb;text-anchor:middle;fill:#b3b3b3;fill-opacity:1;stroke:none;stroke-width:0.03955235px;stroke-linecap:butt;stroke-linejoin:miter;stroke-opacity:1"
           d="m 106.98067,197.02903 h 0.60267 v 1.8216 q 0,0.12789 0.0678,0.20347 0.0678,0.0736 0.18216,0.0736 0.11821,0 0.18604,-0.0794 0.0698,-0.0795 0.0698,-0.21898 v -1.80028 h 0.5988 v 1.69757 q 0,0.34688 -0.0911,0.55617 -0.0911,0.20929 -0.26936,0.30812 -0.17635,0.0969 -0.49416,0.0969 -0.46896,0 -0.66081,-0.24029 -0.19185,-0.2403 -0.19185,-0.81197 z" />
        <path
           style="font-style:normal;font-variant:normal;font-weight:normal;font-stretch:normal;font-size:3.96875px;line-height:125%;font-family:'Tw Cen MT Condensed Extra Bold';-inkscape-font-specification:'Tw Cen MT Condensed Extra Bold, Normal';font-variant-ligatures:normal;font-variant-caps:normal;font-variant-numeric:normal;font-feature-settings:normal;text-align:center;letter-spacing:0px;word-spacing:0px;writing-mode:lr-tb;text-anchor:middle;fill:#b3b3b3;fill-opacity:1;stroke:none;stroke-width:0.03955235px;stroke-linecap:butt;stroke-linejoin:miter;stroke-opacity:1"
           d="m 110.24737,197.02934 -0.19792,0.50022 c -0.005,0.0119 -0.003,0.01 -0.008,0.0207 0.14203,0.28187 0.25501,0.4885 0.31626,0.58962 l 0.54054,-1.11052 z m 0.10026,1.33893 c -0.0514,0.10148 -0.14736,0.28423 -0.31316,0.61237 0.0382,0.1 0.0949,0.24203 0.26303,0.63562 h 0.65112 z"
           id="path1614"
           inkscape:connector-curvature="0" />
      </g>
    </g>
  </g>
</svg>
