<?xml version="1.0" encoding="UTF-8"?>
<svg width="318px" height="130px" viewBox="0 0 318 130" version="1.1" xmlns="http://www.w3.org/2000/svg" xmlns:xlink="http://www.w3.org/1999/xlink">
    <title>UXGraz_navbar_logo</title>
    <g id="Artifacts" stroke="none" stroke-width="1" fill="none" fill-rule="evenodd">
        <g id="UXGraz_navbar_logo" transform="translate(1.000000, 1.000000)">
            <rect id="Rectangle" stroke-opacity="0" stroke="#FFFFFF" x="0" y="0" width="316" height="128"></rect>
            <g id="g1878" transform="translate(127.000000, 25.000000)" fill-rule="nonzero">
                <g id="g1890">
                    <g id="g1866" transform="translate(1.782729, 50.430391)" fill="#53676C">
                        <path d="M0.0596040781,14.9291376 L0.0596040781,10.3119405 C0.0596040781,3.44784153 2.82900386,0.0157920281 8.36780343,0.0157920281 C9.56844354,0.0157920281 10.6331616,0.189997439 11.5619577,0.538408262 C12.5020813,0.875224714 13.2949554,1.36955068 13.9405799,2.02138617 C14.5862043,2.66174324 15.0902459,3.44813139 15.4527046,4.38055064 C15.8151517,5.31296988 16.0303637,6.36898511 16.0983408,7.54859633 L12.9891433,7.54859633 C12.8645284,6.02074821 12.4341101,4.82991944 11.6978885,3.97611002 C10.9729711,3.11105406 9.86860941,2.67852609 8.38480355,2.67852609 C7.43335235,2.67852609 6.62915073,2.83591966 5.97219869,3.15070681 C5.31524666,3.46549396 4.77722529,3.94295012 4.3581346,4.5830753 C3.950389,5.21218582 3.65022898,6.00419724 3.45765452,6.95910957 C3.27640178,7.90277535 3.18577541,9.00934204 3.18577541,10.2788096 L3.18577541,14.9297463 C3.18577541,16.2328955 3.31603073,17.3675496 3.57654135,18.3337084 C3.83705198,19.2998673 4.20517155,20.097502 4.68090007,20.7266125 C5.16796201,21.355723 5.75129071,21.8275559 6.43088619,22.1421112 C7.11049335,22.445304 7.86938763,22.5969003 8.70756902,22.5969003 C9.42115889,22.5969003 10.0214789,22.5351603 10.5085292,22.4116803 C10.9955911,22.2882002 11.3976934,22.1366038 11.714836,21.9568911 C12.0433237,21.7771784 12.3038343,21.5974656 12.4963679,21.4177529 C12.6889014,21.2380402 12.8531453,21.0864438 12.9890994,20.9629637 L12.9890994,15.300969 L8.46970768,15.300969 L8.46970768,12.6721485 L16.0983408,12.6721485 L16.0983408,21.8392372 C15.8944242,22.1088063 15.6169339,22.4402024 15.2658261,22.8334255 C14.9259991,23.21546 14.467262,23.58619 13.8896146,23.9456154 C13.3119555,24.2940263 12.5983686,24.597364 11.7488538,24.8556286 C10.9106724,25.1025887 9.89126162,25.2260687 8.69062151,25.2260687 C7.41070014,25.2260687 6.23837895,25.0127323 5.17365794,24.5860595 C4.12027034,24.1593866 3.2141294,23.5190296 2.45523512,22.6649883 C1.696335,21.8111789 1.10733959,20.7383228 0.688248889,19.4464201 C0.269164038,18.1545174 0.0596040781,16.6491334 0.0596040781,14.930268 L0.0596040781,14.9291376 Z" id="path1858"></path>
                        <path d="M20.7876197,24.8882377 L20.7876197,6.65519214 L23.7099299,6.65519214 L23.7607812,8.50887105 C24.1345675,7.83477437 24.5989656,7.30114349 25.1539753,6.9079784 C25.7202952,6.51492925 26.3942385,6.31840467 27.1758055,6.31840467 C27.2664026,6.31840467 27.368339,6.32999904 27.4816147,6.35318779 C27.6062296,6.36478216 27.7251749,6.38217371 27.8384505,6.40536245 C27.9517262,6.42855119 28.0536626,6.45753712 28.1442597,6.49232023 C28.2461961,6.51550897 28.3198136,6.53869771 28.3651122,6.56188645 L28.3817704,9.46036304 C28.1439383,9.41398556 27.9230566,9.38499963 27.7191253,9.37340526 C27.5152525,9.35021652 27.2830608,9.33862215 27.0225502,9.33862215 C26.2070239,9.33862215 25.5330806,9.56326307 25.00072,10.0125449 C24.4796988,10.4618268 24.0775965,11.0740675 23.7944132,11.8492671 L23.7944132,24.8921508 L20.7876197,24.8882377 Z" id="path1860"></path>
                        <path d="M30.4040564,19.9171226 C30.4040564,19.040878 30.556961,18.2320258 30.8627702,17.4905658 C31.1685794,16.7491058 31.6216499,16.1087488 32.2219816,15.5694946 C32.8223017,15.0303564 33.5755322,14.609075 34.4816731,14.3056503 C35.3878199,13.9908632 36.4412104,13.8334696 37.6418447,13.8334696 L39.7316402,13.8334696 L39.7316402,11.8956156 C39.7316402,10.8058607 39.4881093,10.0306901 39.0010473,9.57010375 C38.5139854,9.10922754 37.7720795,8.87878943 36.7753298,8.87878943 C36.2882678,8.87878943 35.8521887,8.95734129 35.4670924,9.114445 C35.0933061,9.26053407 34.7761548,9.46285583 34.5156383,9.72141028 C34.2551277,9.97996473 34.0569245,10.2833024 33.9210288,10.6314234 C33.7851331,10.9682399 33.7171852,11.3277233 33.7171852,11.7098737 L30.709927,11.7098737 C30.709927,11.0582701 30.8515216,10.4123188 31.1347107,9.77201971 C31.4291806,9.1204161 31.8426076,8.54182805 32.3749914,8.03625554 C32.9186912,7.51972635 33.5756432,7.10406818 34.3458475,6.78928103 C35.1160694,6.47449388 35.9769059,6.31710031 36.9283571,6.31710031 C37.7778661,6.31710031 38.5537517,6.41826119 39.256014,6.62058295 C39.969598,6.82290471 40.5812427,7.14870651 41.0909481,7.59798835 C41.6119693,8.04727019 42.0140716,8.62582926 42.2972549,9.33366556 C42.580444,10.0414439 42.7220386,10.9064709 42.7220386,11.9287465 L42.7220386,20.9104412 C42.7220386,21.213634 42.7334363,21.5338125 42.7562317,21.8709768 C42.7790271,22.2077933 42.8130157,22.5392184 42.8581973,22.865252 C42.9148936,23.1910538 42.9772011,23.5056091 43.0451197,23.8089178 C43.1243776,24.101096 43.2093343,24.3706651 43.2999899,24.6176251 L43.2999899,24.8871942 L40.1738011,24.8871942 C40.0718647,24.6622635 39.9869079,24.3758825 39.9189308,24.0280514 C39.8622346,23.6686259 39.816936,23.2922727 39.7830351,22.8989917 C39.5678231,23.2137788 39.3186225,23.5114932 39.0354333,23.792135 C38.7635835,24.0732984 38.4520988,24.3205484 38.1009793,24.5338848 C37.7611524,24.7472212 37.387369,24.9156294 36.9796293,25.0391095 C36.5831645,25.1625895 36.15841,25.2243295 35.7053658,25.2243295 C34.9011613,25.2243295 34.170583,25.1118642 33.513631,24.8869334 C32.8680065,24.6620026 32.3129938,24.3249832 31.8485928,23.8758753 C31.3842094,23.4265935 31.0274174,22.8761218 30.7782168,22.2244602 C30.5290454,21.56161 30.4044597,20.7920627 30.4044597,19.9158182 L30.4040564,19.9171226 Z M33.4113234,19.5632044 C33.4113234,20.113937 33.4679612,20.5801466 33.5812369,20.9618333 C33.6945125,21.3328531 33.864426,21.6361618 34.0909773,21.8717594 C34.3175286,22.0966902 34.6006885,22.2595911 34.9404571,22.3604621 C35.2915648,22.4613332 35.699328,22.5117687 36.1637464,22.5117687 C36.5828313,22.5117687 36.9792698,22.4500287 37.3530619,22.3265486 C37.7268482,22.2030686 38.0666518,22.045675 38.3724727,21.8543679 C38.6782819,21.6520461 38.9444621,21.4274052 39.1710134,21.1804451 C39.408904,20.9218907 39.5957971,20.6578289 39.7316928,20.3882598 L39.7316928,16.0406319 L38.1516027,16.0406319 C37.4266911,16.0406319 36.7697391,16.1191837 36.1807466,16.2762874 C35.6030875,16.4333912 35.1047097,16.6635394 34.6856131,16.9667322 C34.2778675,17.2589103 33.9607162,17.624046 33.734159,18.0621393 C33.518947,18.5004065 33.4113409,19.0003267 33.4113409,19.5619 L33.4113234,19.5632044 Z" id="path1862"></path>
                        <polygon id="path1864" points="46.7146284 24.8882377 46.7146284 22.5964656 55.1417584 9.23340324 46.782585 9.23340324 46.782585 6.65519214 58.6757134 6.65519214 58.6757134 8.86270224 50.146644 22.3436793 59.015514 22.3436793 59.015514 24.8882377"></polygon>
                    </g>
                    <g id="g1876" transform="translate(0.178837, 0.002887)">
                        <path d="M26.3460157,0.107913765 L37.6278393,0.107913765 C41.6655247,9.78108143 45.2158462,17.0178833 47.5808139,21.3448412 C48.8147065,23.6039234 49.7555569,25.1704546 50.3274374,26.0902462 C50.3575922,26.1352117 50.3575922,26.1352117 50.3879549,26.1801771 C50.312464,26.3468382 50.312464,26.3002226 50.2109775,26.5026085 C49.9025043,27.1010206 49.4639912,27.9288805 48.9407951,28.9338796 C47.894403,30.9444553 46.4701401,33.6597926 44.9241349,36.6963444 C41.9850199,42.4689424 38.6714863,49.2712705 36.3594455,54.6817933 L25.3138275,54.6817933 L38.8697385,26.2683342 L26.3460157,0.107913765 Z" id="path1868" fill="#008066"></path>
                        <g id="g1874" transform="translate(-0.000469, 7.934065)" fill="#B3B3B3">
                            <path d="M0.143725239,0.0619193354 L9.25706496,0.0619193354 L9.25706496,27.3817596 C9.25706496,28.6604649 9.59880764,29.6776601 10.282293,30.433345 C10.9657784,31.169233 11.8839472,31.5371769 13.0367995,31.5371769 C14.2284633,31.5371769 15.166189,31.1402374 15.8499768,30.3463583 C16.553624,29.5514793 16.9054476,28.456746 16.9054476,27.0621583 L16.9054476,0.0619193354 L25.9601164,0.0619193354 L25.9601164,25.5217428 C25.9601164,28.9900148 25.5009312,31.7704414 24.5825608,33.8630228 C23.6641903,35.9556042 22.306494,37.4959697 20.5094719,38.4841192 C18.7317043,39.4529717 16.2409143,39.9373979 13.0371019,39.9373979 C8.3095607,39.9373979 4.97877929,38.7361308 3.04475767,36.3335966 C1.11073605,33.9309625 0.143725239,29.8717305 0.143725239,24.1559008 L0.143725239,0.0619193354 Z" id="path1870"></path>
                            <path d="M49.5408149,0.0665686275 L46.5479959,7.56872635 C46.4723891,7.74719918 46.5026318,7.71870352 46.427025,7.87917909 C48.5747114,12.1065854 50.2831224,15.2055636 51.2093055,16.7221327 L59.3830041,0.0668685818 L49.5408149,0.0665686275 Z M51.0568822,20.1474611 C50.2796445,21.6694294 48.828599,24.4102621 46.3214779,29.3316128 C46.8991138,30.8313844 47.7564947,32.9615101 50.2988486,38.8644613 L60.1446669,38.8644613 L51.0568822,20.1474611 Z" id="path1872"></path>
                        </g>
                    </g>
                </g>
            </g>
        </g>
    </g>
</svg>